<svg xmlns="http://www.w3.org/2000/svg" xmlns:xlink="http://www.w3.org/1999/xlink" version="1.1" viewBox="0 0 111 27"><title>Logo</title><desc>Created with Sketch.</desc><g id="Symbols" fill="none" fill-rule="evenodd" stroke="none" stroke-width="1"><g id="Logo" fill="#00DC89"><g id="Group-4"><path id="Fill-1" d="M36.2772667,15.7547796 L36.2772667,16.5688515 L27.5052374,16.5688515 C27.8451614,17.8353291 28.9852374,18.8483388 30.5126234,18.8483388 C31.5828105,18.8483388 32.7914772,18.4036922 33.4520678,17.7667893 L35.3035825,20.2775447 C34.0985942,21.3797854 32.2267404,22.0121621 30.1675064,22.0121621 C26.2223544,22.0121621 23.4668281,19.3076417 23.4668281,15.4355738 C23.4668281,11.7003699 26.2626,8.88355631 29.9706058,8.88355631 C33.6840211,8.88355631 36.2772667,11.7092068 36.2772667,15.7547796 Z M29.9706058,12.0473796 C28.473945,12.0473796 27.7064655,13.0222398 27.4537404,13.9884786 L32.5108398,13.9884786 C32.3139392,13.0250417 31.5670152,12.0473796 29.9706058,12.0473796 Z"/><path id="Fill-3" d="M49.9314784,15.7547796 L49.9314784,16.5688515 L41.1594491,16.5688515 C41.4991567,17.8353291 42.6394491,18.8483388 44.1668351,18.8483388 C45.2370222,18.8483388 46.4456889,18.4036922 47.1062795,17.7667893 L48.9577942,20.2775447 C47.7528058,21.3797854 45.880952,22.0121621 43.8217181,22.0121621 C39.8765661,22.0121621 37.1210398,19.3076417 37.1210398,15.4355738 C37.1210398,11.7003699 39.9168117,8.88355631 43.6248175,8.88355631 C47.3382327,8.88355631 49.9314784,11.7092068 49.9314784,15.7547796 Z M43.6248175,12.0473796 C42.1281567,12.0473796 41.3606772,13.0222398 41.107952,13.9884786 L46.1650515,13.9884786 C45.9681509,13.0250417 45.2212269,12.0473796 43.6248175,12.0473796 Z"/><polygon id="Fill-5" points="51.481 21.718 55.298 21.718 55.298 4.662 51.481 4.662"/><path id="Fill-7" d="M76.9371509,8.8835132 C80.7154784,8.8835132 83.4578058,11.6391151 83.4578058,15.4355307 C83.4578058,19.2461715 80.7154784,22.012119 76.9371509,22.012119 C73.1726713,22.012119 70.4405135,19.2461715 70.4405135,15.4355307 C70.4405135,11.6391151 73.1726713,8.8835132 76.9371509,8.8835132 Z M76.9178936,18.5538763 C78.7308936,18.5538763 79.5565778,16.937587 79.5565778,15.4355307 C79.5565778,13.9457598 78.7308936,12.3419715 76.9178936,12.3419715 C75.1113848,12.3419715 74.3027942,13.8955404 74.3027942,15.4355307 C74.3027942,16.9878064 75.1113848,18.5538763 76.9178936,18.5538763 Z"/><path id="Fill-8" d="M90.7966801,8.8835132 C94.5750076,8.8835132 97.3173351,11.6391151 97.3173351,15.4355307 C97.3173351,19.2461715 94.5750076,22.012119 90.7966801,22.012119 C87.0322006,22.012119 84.3000427,19.2461715 84.3000427,15.4355307 C84.3000427,11.6391151 87.0322006,8.8835132 90.7966801,8.8835132 Z M90.7774228,18.5538763 C92.5904228,18.5538763 93.416107,16.937587 93.416107,15.4355307 C93.416107,13.9457598 92.5904228,12.3419715 90.7774228,12.3419715 C88.970914,12.3419715 88.1623234,13.8955404 88.1623234,15.4355307 C88.1623234,16.9878064 88.970914,18.5538763 90.7774228,18.5538763 Z"/><path id="Fill-9" d="M107.053809,4.66178447 L110.895318,4.66178447 L110.895318,21.717635 L107.053809,21.717635 L107.053809,20.7352311 C106.125996,21.5643903 104.971207,22.0122699 103.726406,22.0122699 C100.366979,22.0122699 98.1097626,19.3788757 98.1097626,15.4602524 C98.1097626,11.5267573 100.366979,8.88366408 103.726406,8.88366408 C104.987002,8.88366408 106.141359,9.33326796 107.053809,10.1656602 L107.053809,4.66178447 Z M107.053809,13.4603126 C106.547061,12.7975456 105.590903,12.3419068 104.687324,12.3419068 C103.094809,12.3419068 102.024839,13.5952369 102.024839,15.4602524 C102.024839,17.3106117 103.094809,18.5538117 104.687324,18.5538117 C105.590903,18.5538117 106.547061,18.0981728 107.053809,17.4354058 L107.053809,13.4603126 Z"/><path id="Fill-10" d="M19.4728836,15.7283336 C21.055445,15.1006986 22.6827959,13.4857025 22.6827959,10.7387219 C22.6827959,7.38803068 20.3234509,5.13634718 16.8123456,5.13634718 L14.9179889,5.13634718 L14.9179889,9.00216466 L16.1716614,9.00216466 C17.1115912,9.00216466 18.0627725,9.58195107 18.0627725,10.6895802 C18.0627725,11.7972093 17.1115912,12.3769957 16.1716614,12.3769957 L12.9747316,12.3769957 L12.9747316,9.97185204 L8.42849181,12.4261375 L8.42849181,21.8141511 L12.9747316,21.8141511 L12.9747316,16.2673841 L14.8933222,16.2673841 L17.6529596,21.8141511 L22.8643339,21.8141511 L19.4728836,15.7283336 Z"/><path id="Fill-11" d="M65.6737667,9.38909126 L69.5152754,9.38909126 L69.5152754,20.7763981 C69.5152754,26.158066 64.7775444,26.7393612 62.7405971,26.7393612 C61.9707374,26.7393612 61.2867784,26.6738388 60.6502053,26.538699 L60.3799538,26.4811515 L60.3585327,23.2089146 L60.7735386,23.2927573 C60.7834918,23.2949126 61.7935269,23.4970835 62.7425444,23.5018252 C63.6225386,23.5018252 65.6737667,23.2436155 65.6737667,20.8496796 L65.6737667,20.5214214 C64.7353515,21.3870058 63.5801292,21.8549301 62.3463632,21.8549301 C58.9495035,21.8549301 56.7543865,19.3506408 56.7543865,15.4744777 C56.7543865,11.5989612 58.9495035,9.09445631 62.3463632,9.09445631 C63.6119363,9.09445631 64.7474684,9.53694757 65.6737667,10.383134 L65.6737667,9.38909126 Z M65.6737667,13.6676563 C65.1994743,13.0264427 64.2138895,12.5529146 63.331948,12.5529146 C61.6896673,12.5529146 60.6694626,13.6723981 60.6694626,15.4744777 C60.6694626,17.2769883 61.6896673,18.3966874 63.331948,18.3966874 C64.1993924,18.3966874 65.1847608,17.9216505 65.6737667,17.2791437 L65.6737667,13.6676563 Z"/><path id="Fill-12" d="M6.49122806e-05,0.000172427184 L11.9902287,6.89575107 L6.49122806e-05,13.7913297 L6.49122806e-05,0.000172427184 Z M1.62871404,6.35497631 L2.7263807,6.35497631 L2.7263807,9.09161126 L7.57100058,6.22738019 L1.62871404,2.8098734 L1.62871404,6.35497631 Z"/></g></g></g></svg>