<svg width="16" height="22" viewBox="0 0 16 22" fill="none" xmlns="http://www.w3.org/2000/svg">
<path d="M5.16584e-06 12.1875C0.353346 12.364 0.706686 12.5432 1.1867 12.8989C1.66537 13.2546 2.27205 13.7868 2.99607 14.5878C3.71875 15.3875 4.55877 16.4533 5.03878 17.4018C5.51878 18.3504 5.63879 19.1804 5.75879 19.8615C5.87879 20.5426 5.9988 21.0761 6.2388 21.4318C6.47881 21.7875 6.83881 21.9654 7.34816 21.9957C7.8575 22.0247 8.51751 21.9061 9.02819 21.669C9.53753 21.4318 9.89754 21.0761 10.1375 20.6611C10.3776 20.2475 10.4976 19.7732 10.5576 19.2396C10.6162 18.6878 10.6162 18.1315 10.5576 17.5797C10.5045 17.0819 10.3833 16.5935 10.1975 16.1279C10.0175 15.6839 9.77754 15.2689 9.65754 15.0318C9.53753 14.7946 9.53754 14.7354 9.68687 14.6761C9.83754 14.6168 10.1375 14.5575 10.8269 14.5272C11.5162 14.4982 12.5963 14.4982 13.3163 14.4389C14.0363 14.3797 14.3963 14.2611 14.7256 14.0542C15.055 13.8461 15.3563 13.5497 15.5657 13.2243C15.775 12.8989 15.8963 12.5432 15.955 12.1875C16.015 11.8317 16.015 11.476 15.955 11.1493C15.8969 10.8636 15.8065 10.5852 15.6857 10.3193C15.5963 10.1125 15.535 9.99394 15.535 9.84507C15.535 9.69752 15.5963 9.51966 15.655 9.34181C15.715 9.16396 15.775 8.98611 15.775 8.80825C15.775 8.6304 15.715 8.45255 15.655 8.27601C15.5963 8.09684 15.535 7.92031 15.4457 7.68317C15.3563 7.44603 15.2363 7.14961 15.175 6.88217C15.1163 6.61605 15.1163 6.37892 15.1163 6.1128C15.1163 5.84536 15.1163 5.54894 15.0856 5.3118C15.055 5.07466 14.9963 4.89681 14.9056 4.68997C14.8124 4.47957 14.7124 4.27218 14.6056 4.06815C14.5163 3.88898 14.4563 3.77173 14.3963 3.59388C14.3363 3.41602 14.2763 3.17889 14.2456 2.94175C14.2163 2.70461 14.2163 2.46747 14.1256 2.17105C14.0114 1.81401 13.8285 1.48211 13.587 1.19352C13.2993 0.847311 12.9414 0.564564 12.5363 0.363543C12.1163 0.15539 11.6362 0.0368214 10.8562 0.0078373C10.0775 -0.0224628 8.99752 0.0368233 7.9775 0.155392C6.97519 0.269241 5.98302 0.457731 5.00944 0.71925C4.02644 0.994427 3.05576 1.31089 2.10005 1.6678C1.33737 1.94445 0.662686 2.1974 5.16584e-06 2.44903V12.1875Z" fill="#BBBDBE"/>
</svg>
