<svg width="14" height="18" viewBox="0 0 14 18" fill="none" xmlns="http://www.w3.org/2000/svg">
<path d="M0.599614 9.95001C0.882286 10.0912 1.16496 10.2346 1.54897 10.5191C1.93191 10.8037 2.41725 11.2295 2.99646 11.8703C3.57461 12.51 4.24662 13.3627 4.63063 14.1215C5.01464 14.8804 5.11064 15.5443 5.20664 16.0892C5.30264 16.6341 5.39865 17.061 5.59065 17.3455C5.78265 17.6301 6.07066 17.7724 6.47814 17.7966C6.88561 17.8198 7.41362 17.7249 7.82216 17.5352C8.22964 17.3455 8.51764 17.061 8.70965 16.729C8.90165 16.398 8.99765 16.0186 9.04566 15.5918C9.09259 15.1503 9.09259 14.7052 9.04566 14.2638C9.00317 13.8656 8.90629 13.4749 8.75765 13.1024C8.61365 12.7472 8.42164 12.4152 8.32564 12.2255C8.22964 12.0358 8.22964 11.9883 8.34911 11.9409C8.46964 11.8935 8.70965 11.8461 9.26113 11.8218C9.8126 11.7986 10.6766 11.7986 11.2526 11.7512C11.8286 11.7038 12.1167 11.6089 12.3801 11.4434C12.6436 11.2769 12.8847 11.0398 13.0521 10.7795C13.2196 10.5191 13.3167 10.2346 13.3636 9.95001C13.4116 9.66545 13.4116 9.38088 13.3636 9.11951C13.3171 8.89092 13.2449 8.6682 13.1481 8.45552C13.0767 8.29005 13.0276 8.1952 13.0276 8.07611C13.0276 7.95806 13.0767 7.81578 13.1236 7.6735C13.1716 7.53122 13.2196 7.38894 13.2196 7.24665C13.2196 7.10437 13.1716 6.96209 13.1236 6.82086C13.0767 6.67752 13.0276 6.5363 12.9561 6.34659C12.8847 6.15688 12.7887 5.91974 12.7396 5.70579C12.6927 5.49289 12.6927 5.30318 12.6927 5.09029C12.6927 4.87634 12.6927 4.6392 12.6681 4.44949C12.6436 4.25978 12.5967 4.1175 12.5241 3.95203C12.4496 3.7837 12.3695 3.6178 12.2841 3.45457C12.2127 3.31123 12.1647 3.21743 12.1167 3.07515C12.0687 2.93287 12.0207 2.74316 11.9961 2.55345C11.9726 2.36374 11.9726 2.17403 11.9001 1.93689C11.8087 1.65126 11.6624 1.38574 11.4692 1.15487C11.2391 0.877901 10.9527 0.651702 10.6286 0.490886C10.2926 0.324363 9.90861 0.229508 9.28459 0.206321C8.66165 0.182081 7.79763 0.22951 6.98161 0.324364C6.17976 0.415445 5.38602 0.566236 4.60716 0.775451C3.82076 0.995593 3.04422 1.24877 2.27965 1.53429C1.6695 1.75562 1.12976 1.95797 0.599614 2.15928V9.95001Z" fill="white"/>
</svg>
