<svg width="16" height="22" viewBox="0 0 16 22" fill="none" xmlns="http://www.w3.org/2000/svg">
<path d="M5.16584e-06 9.81254C0.353346 9.63601 0.706686 9.45684 1.1867 9.10113C1.66537 8.74543 2.27205 8.21319 2.99607 7.41219C3.71875 6.61251 4.55877 5.54671 5.03878 4.59817C5.51879 3.64962 5.63879 2.81964 5.75879 2.13853C5.87879 1.45742 5.9988 0.923862 6.2388 0.568157C6.47881 0.212451 6.83881 0.0345986 7.34816 0.00429774C7.8575 -0.0246857 8.51751 0.0938828 9.02819 0.33102C9.53753 0.568157 9.89754 0.923862 10.1375 1.33885C10.3776 1.75252 10.4976 2.2268 10.5576 2.76036C10.6162 3.31216 10.6162 3.86851 10.5576 4.42031C10.5045 4.91809 10.3833 5.40647 10.1975 5.87212C10.0175 6.31609 9.77754 6.73108 9.65754 6.96822C9.53753 7.20536 9.53754 7.26464 9.68687 7.32392C9.83754 7.38321 10.1375 7.44249 10.8269 7.47279C11.5162 7.50178 12.5963 7.50178 13.3163 7.56106C14.0363 7.62035 14.3963 7.73891 14.7256 7.94575C15.055 8.1539 15.3563 8.45032 15.5657 8.77573C15.775 9.10113 15.8963 9.45684 15.955 9.81254C16.015 10.1683 16.015 10.524 15.955 10.8507C15.8969 11.1364 15.8065 11.4148 15.6857 11.6807C15.5963 11.8875 15.535 12.0061 15.535 12.1549C15.535 12.3025 15.5963 12.4803 15.655 12.6582C15.715 12.836 15.775 13.0139 15.775 13.1917C15.775 13.3696 15.715 13.5475 15.655 13.724C15.5963 13.9032 15.535 14.0797 15.4457 14.3168C15.3563 14.554 15.2363 14.8504 15.175 15.1178C15.1163 15.3839 15.1163 15.6211 15.1163 15.8872C15.1163 16.1546 15.1163 16.4511 15.0856 16.6882C15.055 16.9253 14.9963 17.1032 14.9056 17.31C14.8124 17.5204 14.7124 17.7278 14.6056 17.9318C14.5163 18.111 14.4563 18.2283 14.3963 18.4061C14.3363 18.584 14.2763 18.8211 14.2456 19.0582C14.2163 19.2954 14.2163 19.5325 14.1256 19.8289C14.0114 20.186 13.8285 20.5179 13.587 20.8065C13.2993 21.1527 12.9414 21.4354 12.5363 21.6365C12.1163 21.8446 11.6362 21.9632 10.8562 21.9922C10.0775 22.0225 8.99752 21.9632 7.9775 21.8446C6.97519 21.7308 5.98302 21.5423 5.00944 21.2807C4.02644 21.0056 3.05576 20.6891 2.10005 20.3322C1.33737 20.0555 0.662685 19.8026 5.16584e-06 19.551V9.81254Z" fill="#00DC89"/>
</svg>
