<svg width="14" height="18" viewBox="0 0 14 18" fill="none" xmlns="http://www.w3.org/2000/svg">
<path d="M0.599614 8.04999C0.882286 7.90876 1.16496 7.76542 1.54897 7.48086C1.93191 7.19629 2.41725 6.7705 2.99646 6.1297C3.57461 5.48996 4.24662 4.63732 4.63063 3.87848C5.01464 3.11965 5.11064 2.45566 5.20664 1.91077C5.30264 1.36589 5.39865 0.939041 5.59065 0.654476C5.78265 0.369912 6.07066 0.22763 6.47814 0.203389C6.88561 0.180203 7.41362 0.275057 7.82216 0.464767C8.22964 0.654477 8.51764 0.939041 8.70965 1.27103C8.90165 1.60197 8.99765 1.98139 9.04566 2.40824C9.09259 2.84968 9.09259 3.29476 9.04566 3.7362C9.00317 4.13442 8.90629 4.52512 8.75765 4.89765C8.61365 5.25282 8.42164 5.58482 8.32564 5.77453C8.22964 5.96424 8.22964 6.01166 8.34911 6.05909C8.46964 6.10652 8.70965 6.15394 9.26113 6.17819C9.8126 6.20137 10.6766 6.20137 11.2526 6.2488C11.8286 6.29623 12.1167 6.39108 12.3801 6.55655C12.6436 6.72307 12.8847 6.96021 13.0521 7.22053C13.2196 7.48086 13.3167 7.76542 13.3636 8.04999C13.4116 8.33455 13.4116 8.61911 13.3636 8.88049C13.3171 9.10908 13.2449 9.3318 13.1481 9.54448C13.0767 9.70994 13.0276 9.8048 13.0276 9.92389C13.0276 10.0419 13.0767 10.1842 13.1236 10.3265C13.1716 10.4688 13.2196 10.6111 13.2196 10.7533C13.2196 10.8956 13.1716 11.0379 13.1236 11.1791C13.0767 11.3225 13.0276 11.4637 12.9561 11.6534C12.8847 11.8431 12.7887 12.0803 12.7396 12.2942C12.6927 12.5071 12.6927 12.6968 12.6927 12.9097C12.6927 13.1237 12.6927 13.3608 12.6681 13.5505C12.6436 13.7402 12.5967 13.8825 12.5241 14.048C12.4496 14.2163 12.3695 14.3822 12.2841 14.5454C12.2127 14.6888 12.1647 14.7826 12.1167 14.9248C12.0687 15.0671 12.0206 15.2568 11.9961 15.4466C11.9726 15.6363 11.9726 15.826 11.9001 16.0631C11.8087 16.3487 11.6624 16.6143 11.4692 16.8451C11.2391 17.1221 10.9527 17.3483 10.6286 17.5091C10.2926 17.6756 9.90861 17.7705 9.28459 17.7937C8.66165 17.8179 7.79763 17.7705 6.98161 17.6756C6.17976 17.5846 5.38602 17.4338 4.60716 17.2245C3.82076 17.0044 3.04422 16.7512 2.27965 16.4657C1.6695 16.2444 1.12976 16.042 0.599614 15.8407V8.04999Z" fill="white"/>
</svg>

