<svg width="60" height="54" viewBox="0 0 60 54" fill="none" xmlns="http://www.w3.org/2000/svg">
<path d="M60 15C60 11.0218 58.4196 7.20644 55.6066 4.3934C52.7936 1.58035 48.9782 9.4976e-07 45 9.4976e-07C38.5 9.4976e-07 32.1 4.2 30 10C27.9 4.1 21.5 9.4976e-07 15 9.4976e-07C11.0901 -0.00138948 7.33418 1.52394 4.53235 4.25105C1.73053 6.97816 0.104264 10.6915 0 14.6V15C0.00294023 16.5269 0.238994 18.0444 0.7 19.5C4.1 32.2 19.4 45.1 30 54C40.6 45.2 55.8 31.3 59.2 19.6C59.4176 18.9131 59.5847 18.2112 59.7 17.5V17.2C59.8155 16.5055 59.8824 15.8038 59.9 15.1L60 15Z" fill="white"/>
</svg>
